<?xml version="1.0" encoding="iso-8859-1"?>
<!-- Uploaded to: SVG Repo, www.svgrepo.com, Generator: SVG Repo Mixer Tools -->
<svg fill="#000000" height="800px" width="800px" version="1.1" id="Layer_1" xmlns="http://www.w3.org/2000/svg" xmlns:xlink="http://www.w3.org/1999/xlink" 
	 viewBox="0 0 469.333 469.333" xml:space="preserve">
<g>
	<g>
		<g>
			<circle cx="85.333" cy="202.667" r="21.333"/>
			<circle cx="160" cy="202.667" r="21.333"/>
			<circle cx="234.667" cy="202.667" r="21.333"/>
			<circle cx="309.333" cy="202.667" r="21.333"/>
			<circle cx="384" cy="202.667" r="21.333"/>
			<circle cx="85.333" cy="288" r="21.333"/>
			<circle cx="160" cy="288" r="21.333"/>
			<circle cx="234.667" cy="288" r="21.333"/>
			<circle cx="85.333" cy="373.333" r="21.333"/>
			<circle cx="160" cy="373.333" r="21.333"/>
			<circle cx="234.667" cy="373.333" r="21.333"/>
		</g>
	</g>
</g>
<g>
	<g>
		<path d="M437.333,32h-32V21.333c0-5.888-4.768-10.667-10.667-10.667S384,15.445,384,21.333V32h-42.667V21.333
			c0-5.888-4.768-10.667-10.667-10.667S320,15.445,320,21.333V32h-42.667V21.333c0-5.888-4.768-10.667-10.667-10.667
			S256,15.445,256,21.333V32h-42.667V21.333c0-5.888-4.768-10.667-10.667-10.667S192,15.445,192,21.333V32h-42.667V21.333
			c0-5.888-4.768-10.667-10.667-10.667S128,15.445,128,21.333V32H85.333V21.333c0-5.888-4.768-10.667-10.667-10.667
			S64,15.445,64,21.333V32H32C14.357,32,0,46.357,0,64v64v298.667c0,17.643,14.357,32,32,32h405.333c17.643,0,32-14.357,32-32V128
			V64C469.333,46.357,454.976,32,437.333,32z M448,426.667c0,5.877-4.779,10.667-10.667,10.667H32
			c-5.888,0-10.667-4.789-10.667-10.667v-288H448V426.667z M448,117.333H21.333V64c0-5.877,4.779-10.667,10.667-10.667h405.333
			C443.221,53.333,448,58.123,448,64V117.333z"/>
	</g>
</g>
<g>
	<g>
		<path d="M341.333,256c-41.163,0-74.667,33.493-74.667,74.667s33.504,74.667,74.667,74.667S416,371.84,416,330.667
			S382.496,256,341.333,256z M341.333,384C311.925,384,288,360.075,288,330.667s23.925-53.333,53.333-53.333
			s53.333,23.925,53.333,53.333S370.741,384,341.333,384z"/>
	</g>
</g>
<g>
	<g>
		<path d="M366.933,317.867h-12.8v-12.8c0-7.072-5.728-12.8-12.8-12.8s-12.8,5.728-12.8,12.8v12.8h-12.8
			c-7.072,0-12.8,5.728-12.8,12.8s5.728,12.8,12.8,12.8h12.8v12.8c0,7.072,5.728,12.8,12.8,12.8s12.8-5.728,12.8-12.8v-12.8h12.8
			c7.072,0,12.8-5.728,12.8-12.8S374.005,317.867,366.933,317.867z"/>
	</g>
</g>
</svg>