<svg width="600" height="600" xmlns="http://www.w3.org/2000/svg"><g stroke-width="1.051"><path style="-inkscape-stroke:none" d="M41.927 260.059a40.012 39.988 0 00-28.821 10.344 40.012 39.988 0 00-2.709 56.488l200 220a40.012 39.988 0 0056.522 2.706 40.012 39.988 0 002.708-56.486L69.626 273.109a40.012 39.988 0 00-27.699-13.05z" color="#000"/><path style="-inkscape-stroke:none" d="M39.393 260.012A40.012 39.988 0 00-.618 300a40.012 39.988 0 0040.011 39.988h521.213A40.012 39.988 0 00600.618 300a40.012 39.988 0 00-40.012-39.988z" color="#000"/><path style="-inkscape-stroke:none" d="M238.097 40.057a40.012 39.988 0 00-27.7 13.052l-200 220a40.012 39.988 0 002.709 56.488 40.012 39.988 0 0056.52-2.706l200.001-220a40.012 39.988 0 00-2.708-56.488 40.012 39.988 0 00-28.822-10.346z" color="#000"/></g></svg>