<svg xmlns="http://www.w3.org/2000/svg" xmlns:xlink="http://www.w3.org/1999/xlink" aria-hidden="true" role="img" xml:space="preserve" preserveAspectRatio="xMidYMid meet" width="72" height="72" viewBox="0 0 72 72" data-version="1" data-id="lg_t96S0ekY4gOW8SORgD">
<g transform="scale(0.27) translate(-600,-13 )"><g id="outer-wrapper" data-padding="20" transform="matrix(1,0,0,1,0,0)"><g id="inner-wrapper" transform="matrix(0.9656357388316151,0,0,0.9656357388316151,10,7.096219931271463)"><path fill="#262d3c" d="M687.7800195729538 49.01750000000001H810.8800195729539V245.9775H687.7800195729538Z "></path><path fill="#262d3c" d="M856.0580195729539 35.968500000000006C851.1340195729539 34.1225 847.8100195729539 29.5685 847.8100195729539 24.397500000000008S851.1340195729539 14.549499999999995 856.0580195729539 12.82650000000001C858.5200195729539 11.964500000000015 860.120019572954 8.517500000000013 860.120019572954 5.9325000000000045C860.120019572954 2.532499999999999 857.3640195729539 -0.2224999999999968 853.965019572954 -0.2224999999999968H840.424019572954A6.155 6.155 0 0 0 834.761019572954 3.8395000000000152C833.0380195729539 8.763500000000022 828.361019572954 12.087500000000006 823.1900195729539 12.087500000000006S813.342019572954 8.763499999999993 811.6190195729539 3.8395000000000152A6.155 6.155 0 0 0 805.9560195729539 -0.2224999999999968H791.4300195729539A6.155 6.155 0 0 0 785.6450195729539 3.8395000000000152C783.9210195729539 8.763500000000022 779.2430195729538 12.087500000000006 774.0730195729539 12.087500000000006S764.2250195729538 8.763499999999993 762.5020195729538 3.8395000000000152A6.155 6.155 0 0 0 756.7160195729538 -0.2224999999999968H742.1900195729538A6.155 6.155 0 0 0 736.4040195729539 3.8395000000000152A12.31 12.31 0 0 1 713.1390195729538 3.8395000000000152A6.155 6.155 0 0 0 707.4760195729538 -0.2224999999999968H692.8270195729539A6.155 6.155 0 0 0 687.0410195729538 3.8395000000000152C685.1950195729538 8.763500000000022 680.6410195729538 12.087500000000006 675.4700195729538 12.087500000000006S665.6220195729537 8.763499999999993 663.8990195729538 3.8395000000000152A6.155 6.155 0 0 0 658.2360195729538 -0.2224999999999968H644.6950195729539C641.2480195729539 -0.2224999999999968 638.540019572954 3.717500000000001 638.540019572954 7.163499999999999C638.540019572954 9.625499999999988 640.140019572954 12.087500000000006 642.602019572954 12.82650000000001C647.5260195729539 14.672500000000014 650.850019572954 19.226500000000016 650.850019572954 24.397500000000008S647.5260195729539 34.24550000000002 642.602019572954 35.968500000000006A6.155 6.155 0 0 0 638.540019572954 41.63150000000002V56.15750000000003C638.540019572954 58.742500000000035 640.140019572954 61.081500000000034 642.602019572954 61.94350000000003C647.5260195729539 63.789500000000004 650.850019572954 68.34350000000003 650.850019572954 73.51350000000005C650.850019572954 78.68450000000004 647.5260195729539 83.36250000000004 642.602019572954 85.08550000000005A6.155 6.155 0 0 0 638.540019572954 90.87150000000005V105.39750000000006C638.540019572954 107.98250000000004 640.140019572954 110.32150000000004 642.602019572954 111.18350000000007C647.5260195729539 112.90650000000008 650.850019572954 117.58350000000004 650.850019572954 122.75350000000006C650.850019572954 127.92450000000005 647.5260195729539 132.60250000000005 642.602019572954 134.32550000000006A6.155 6.155 0 0 0 638.540019572954 140.11150000000006V154.63750000000007C638.540019572954 157.22250000000005 640.140019572954 159.56150000000005 642.602019572954 160.42350000000008C647.5260195729539 162.1465000000001 650.850019572954 166.82350000000005 650.850019572954 171.99350000000007C650.850019572954 177.16450000000006 647.5260195729539 181.84250000000006 642.602019572954 183.56550000000007A6.155 6.155 0 0 0 638.540019572954 189.35150000000007V203.87750000000008C638.540019572954 206.46250000000006 640.140019572954 208.80150000000006 642.602019572954 209.66350000000008C647.5260195729539 211.3865000000001 650.850019572954 216.06350000000006 650.850019572954 221.23350000000008C650.850019572954 226.40450000000007 647.5260195729539 231.08250000000007 642.602019572954 232.80550000000008A6.155 6.155 0 0 0 638.540019572954 238.59150000000008V253.1175000000001C638.540019572954 255.70250000000007 640.140019572954 258.04150000000004 642.602019572954 258.9035000000001C647.5260195729539 260.6265000000001 650.850019572954 265.3035000000001 650.850019572954 270.47350000000006C650.850019572954 275.6445000000001 647.5260195729539 280.3225000000001 642.602019572954 282.04550000000006C640.140019572954 282.90750000000014 638.540019572954 286.35450000000014 638.540019572954 288.93950000000007C638.540019572954 292.38650000000007 641.2480195729539 295.09450000000004 644.6950195729539 295.09450000000004H658.236019572954A6.155 6.155 0 0 0 663.899019572954 291.0325C665.745019572954 286.10850000000005 670.2990195729539 282.7845000000001 675.4700195729539 282.7845000000001S685.318019572954 286.10850000000005 687.041019572954 291.0325C687.903019572954 293.4945 690.2420195729541 295.09450000000004 692.827019572954 295.09450000000004H707.3530195729539A6.155 6.155 0 0 0 713.139019572954 291.0325C714.862019572954 286.10850000000005 719.539019572954 282.7845000000001 724.710019572954 282.7845000000001S734.5580195729541 286.10850000000005 736.281019572954 291.0325C737.1430195729541 293.4945 739.4820195729541 295.09450000000004 742.0670195729541 295.09450000000004H756.5930195729541A6.155 6.155 0 0 0 762.379019572954 291.0325C764.1020195729541 286.10850000000005 768.7790195729541 282.7845000000001 773.9500195729541 282.7845000000001S783.7980195729541 286.10850000000005 785.5210195729541 291.0325C786.3830195729541 293.4945 788.7220195729541 295.09450000000004 791.3070195729541 295.09450000000004H805.8330195729542A6.155 6.155 0 0 0 811.6190195729541 291.0325C813.3420195729542 286.10850000000005 818.0190195729541 282.7845000000001 823.1900195729542 282.7845000000001S833.0380195729541 286.10850000000005 834.7610195729542 291.0325C835.6230195729541 293.4945 837.9620195729542 295.09450000000004 840.5470195729541 295.09450000000004H853.9650195729539C857.4120195729539 295.09450000000004 860.1200195729539 291.2785000000001 860.1200195729539 287.7085000000001A6.155 6.155 0 0 0 856.0580195729539 282.04550000000006C851.1340195729539 280.3225 847.8100195729538 275.6455000000001 847.8100195729538 270.47450000000003S851.1340195729539 260.62649999999996 856.0580195729539 258.9035A6.155 6.155 0 0 0 860.1200195729539 253.11749999999998V238.59149999999997A6.155 6.155 0 0 0 856.0580195729539 232.80549999999997C851.1340195729539 231.08249999999995 847.8100195729538 226.4055 847.8100195729538 221.23449999999994S851.1340195729539 211.38649999999993 856.0580195729539 209.6634999999999A6.155 6.155 0 0 0 860.1200195729539 203.8774999999999V189.3514999999999A6.155 6.155 0 0 0 856.0580195729539 183.5654999999999C851.1340195729539 181.8424999999999 847.8100195729538 177.16549999999992 847.8100195729538 171.99449999999987S851.1340195729539 162.14649999999986 856.0580195729539 160.42349999999985A6.155 6.155 0 0 0 860.1200195729539 154.63749999999985V140.11149999999984A6.155 6.155 0 0 0 856.0580195729539 134.32549999999983C851.1340195729539 132.60249999999982 847.8100195729538 127.92549999999986 847.8100195729538 122.75449999999981S851.1340195729539 112.9064999999998 856.0580195729539 111.18349999999978A6.155 6.155 0 0 0 860.1200195729539 105.64349999999976V90.99449999999976A6.155 6.155 0 0 0 856.0580195729539 85.20849999999976C851.1340195729539 83.36249999999976 847.8100195729538 78.80849999999978 847.8100195729538 73.63749999999973S851.1340195729539 63.78949999999972 856.0580195729539 62.066499999999735A6.155 6.155 0 0 0 860.1200195729539 56.403499999999724V41.75449999999972A6.155 6.155 0 0 0 856.0580195729539 35.96849999999972M823.1900195729539 252.13250000000002C823.1900195729539 255.5325 820.434019572954 258.2875 817.035019572954 258.2875H681.6250195729539A6.155 6.155 0 0 1 675.4700195729539 252.13250000000002V42.86250000000001C675.4700195729539 39.41550000000001 678.178019572954 36.70750000000001 681.6250195729539 36.70750000000001H817.035019572954C820.482019572954 36.70750000000001 823.1900195729539 39.41550000000001 823.1900195729539 42.86250000000001Z "></path><rect width="581.743" height="97.18" x="64.09301957295395" y="-241.87750000000003" fill="none" rx="0" ry="0" transform="translate(411.37 557.92)"></rect><path fill="#262d3c" d="M519.2050195729539 391.15250000000003H511.6450195729539V328.5825H532.8150195729539Q540.165019572954 328.5825 544.8450195729539 331.0825T551.795019572954 337.9325Q554.0650195729539 342.27250000000004 554.0650195729539 347.8225Q554.0650195729539 353.3225 551.8150195729539 357.60249999999996T544.8850195729539 364.3025Q540.2050195729539 366.7125 532.8950195729539 366.7125H515.8450195729539V359.9125H532.6450195729539Q537.6850195729539 359.9125 540.755019572954 358.4425Q543.8150195729539 356.97249999999997 545.2050195729539 354.26250000000005Q546.5850195729539 351.5525 546.5850195729539 347.8225Q546.5850195729539 344.0425 545.1850195729539 341.22249999999997Q543.775019572954 338.4125 540.7050195729539 336.86249999999995Q537.6450195729539 335.3025 532.5650195729539 335.3025H519.2050195729539ZM556.4950195729539 391.15250000000003H547.6750195729539L532.5650195729539 363.02250000000004H541.1250195729539ZM580.2450195729539 392.15250000000003Q573.4850195729539 392.15250000000003 568.5550195729539 389.13250000000005Q563.6150195729539 386.1025000000001 560.9750195729539 380.6725Q558.3250195729539 375.23249999999996 558.3250195729539 368.0525Q558.3250195729539 360.8225 560.9350195729539 355.3225Q563.535019572954 349.8225 568.2550195729539 346.7125Q572.9850195729539 343.61249999999995 579.3250195729539 343.61249999999995Q582.9750195729539 343.61249999999995 586.5850195729539 344.8225Q590.2050195729539 346.0425 593.1650195729538 348.77250000000004T597.8850195729539 355.99250000000006Q599.6450195729539 360.49250000000006 599.6450195729539 367.0425V370.15250000000003H563.4550195729539V363.9325H595.7450195729539L592.4250195729538 366.2825Q592.4250195729538 361.5825 590.9550195729539 357.9325Q589.4850195729539 354.27250000000004 586.5650195729539 352.1725Q583.6550195729538 350.0725 579.3250195729539 350.0725T571.9150195729538 352.1925Q568.8250195729539 354.3225 567.1850195729539 357.72249999999997Q565.5550195729539 361.12249999999995 565.5550195729539 365.0224999999999V369.1424999999999Q565.5550195729539 374.47249999999997 567.3950195729539 378.1724999999999Q569.2450195729539 381.86249999999995 572.5650195729539 383.7724999999999T580.2450195729539 385.6824999999999Q583.0650195729539 385.6824999999999 585.3750195729539 384.86249999999984Q587.6850195729539 384.0524999999999 589.3650195729539 382.3924999999998T591.9250195729539 378.2924999999998L598.8950195729539 380.3124999999998Q597.8050195729539 383.84249999999975 595.2150195729539 386.5024999999998Q592.6350195729539 389.1724999999998 588.8150195729539 390.6624999999998T580.2450195729539 392.1524999999998M624.3150195729539 392.1524999999998Q617.765019572954 392.1524999999998 612.995019572954 389.0224999999998Q608.235019572954 385.8924999999998 605.645019572954 380.4324999999998Q603.0650195729539 374.98249999999973 603.0650195729539 367.96249999999975Q603.0650195729539 360.7824999999998 605.7150195729539 355.3024999999998Q608.3550195729539 349.82249999999976 613.1250195729539 346.71249999999975Q617.8850195729539 343.6124999999997 624.235019572954 343.6124999999997Q629.1850195729539 343.6124999999997 633.155019572954 345.4324999999998Q637.125019572954 347.2624999999998 639.665019572954 350.58249999999975T642.795019572954 358.3024999999998H635.5650195729539Q635.025019572954 356.1624999999998 633.5950195729539 354.2724999999998T629.8350195729539 351.23249999999985Q627.505019572954 350.0724999999999 624.3150195729539 350.0724999999999Q620.1150195729539 350.0724999999999 616.9650195729539 352.26249999999993Q613.8150195729539 354.4424999999999 612.0550195729539 358.4124999999999Q610.2850195729538 362.38249999999994 610.2850195729538 367.71249999999986Q610.2850195729538 373.1324999999998 612.0150195729539 377.1824999999999Q613.7350195729539 381.23249999999985 616.9050195729538 383.46249999999986Q620.0750195729539 385.6824999999999 624.3150195729539 385.6824999999999T631.5750195729539 383.48249999999985Q634.6050195729539 381.2724999999998 635.5650195729539 377.4524999999999H642.795019572954Q642.2050195729539 381.61249999999984 639.785019572954 384.9324999999999Q637.3750195729539 388.24249999999984 633.4450195729539 390.2024999999999Q629.525019572954 392.1524999999999 624.3150195729539 392.1524999999999M667.4550195729539 392.1524999999999Q661.1150195729539 392.1524999999999 656.3250195729539 389.13249999999994Q651.545019572954 386.10249999999996 648.8750195729539 380.6424999999999Q646.2050195729539 375.1924999999999 646.2050195729539 367.9625Q646.2050195729539 360.61249999999995 648.8750195729539 355.13249999999994T656.3250195729539 346.63249999999994Q661.1150195729539 343.61249999999995 667.4550195729539 343.61249999999995Q673.8350195729539 343.61249999999995 678.6250195729539 346.63249999999994T686.1050195729539 355.13249999999994Q688.785019572954 360.61249999999995 688.785019572954 367.9625Q688.785019572954 375.1925 686.1050195729539 380.6424999999999Q683.415019572954 386.10249999999996 678.6250195729539 389.13249999999994Q673.8350195729539 392.1524999999999 667.4550195729539 392.1524999999999M667.4550195729539 385.6824999999999Q672.3250195729539 385.6824999999999 675.4350195729539 383.21249999999986Q678.545019572954 380.73249999999985 680.0550195729539 376.6824999999999Q681.5650195729539 372.62249999999995 681.5650195729539 367.96249999999986Q681.5650195729539 363.22249999999985 680.0550195729539 359.1424999999998Q678.545019572954 355.07249999999976 675.4350195729539 352.57249999999976T667.4550195729539 350.07249999999976Q662.6650195729538 350.07249999999976 659.5650195729539 352.57249999999976Q656.4550195729539 355.07249999999976 654.9450195729539 359.1424999999998Q653.4350195729539 363.22249999999985 653.4350195729539 367.96249999999986Q653.4350195729539 372.62249999999983 654.9450195729539 376.6824999999999Q656.4550195729539 380.73249999999985 659.5650195729539 383.21249999999986Q662.665019572954 385.6824999999999 667.4550195729539 385.6824999999999M701.775019572954 391.1524999999999H694.6450195729539V344.2125H701.525019572954V351.60249999999996H702.1950195729539Q703.665019572954 347.8225 706.9450195729539 345.72249999999997Q710.2150195729539 343.62249999999995 714.795019572954 343.62249999999995Q719.415019572954 343.62249999999995 722.505019572954 345.72249999999997Q725.5850195729539 347.8225 727.3150195729539 351.60249999999996H727.8150195729539Q729.665019572954 347.9425 733.255019572954 345.7824999999999T741.8450195729539 343.62249999999995Q748.1350195729539 343.62249999999995 752.1750195729538 347.5424999999999Q756.2050195729538 351.47249999999985 756.2050195729538 359.74249999999995V391.1524999999999H748.9750195729538V359.74249999999995Q748.9750195729538 354.5424999999999 746.1250195729539 352.3125Q743.2650195729537 350.0825 739.4050195729538 350.0825Q734.4950195729538 350.0825 731.7850195729537 353.0925Q729.0750195729538 356.0925 729.0750195729538 360.5825V391.15250000000003H721.6850195729538V358.99250000000006Q721.6850195729538 355.00250000000005 719.1250195729539 352.5425T712.4450195729538 350.0825Q709.6350195729539 350.0825 707.1950195729538 351.60249999999996Q704.7650195729537 353.11249999999995 703.2750195729537 355.75249999999994Q701.7750195729537 358.4024999999999 701.7750195729537 361.8425ZM771.4650195729539 391.1524999999999H764.3250195729539V344.2125H771.2050195729539V351.60249999999996H771.8850195729539Q773.3450195729539 347.8225 776.6250195729539 345.72249999999997T784.475019572954 343.62249999999995Q789.0950195729539 343.62249999999995 792.1850195729539 345.72249999999997Q795.265019572954 347.8225 796.995019572954 351.60249999999996H797.495019572954Q799.3450195729539 347.9425 802.9350195729539 345.7824999999999T811.525019572954 343.62249999999995Q817.8150195729539 343.62249999999995 821.8550195729539 347.5424999999999Q825.8850195729539 351.47249999999985 825.8850195729539 359.74249999999995V391.1524999999999H818.6550195729538V359.74249999999995Q818.6550195729538 354.5424999999999 815.8050195729538 352.3125Q812.9450195729538 350.0825 809.0850195729538 350.0825Q804.1750195729538 350.0825 801.4650195729538 353.0925Q798.7550195729538 356.0925 798.7550195729538 360.5825V391.15250000000003H791.3650195729539V358.99250000000006Q791.3650195729539 355.00250000000005 788.8050195729538 352.5425T782.1250195729539 350.0825Q779.3150195729538 350.0825 776.8750195729539 351.60249999999996Q774.4450195729538 353.11249999999995 772.9550195729538 355.75249999999994Q771.4650195729538 358.4024999999999 771.4650195729538 361.8425ZM853.6550195729538 392.1524999999999Q846.8950195729539 392.1524999999999 841.9550195729539 389.13249999999994Q837.025019572954 386.10249999999996 834.3850195729539 380.6724999999999Q831.735019572954 375.23249999999985 831.735019572954 368.0524999999999Q831.735019572954 360.8224999999999 834.3350195729539 355.3224999999999Q836.945019572954 349.8224999999999 841.665019572954 346.71249999999986Q846.395019572954 343.61249999999984 852.735019572954 343.61249999999984Q856.3850195729539 343.61249999999984 859.995019572954 344.8224999999999Q863.6050195729539 346.0424999999999 866.5650195729539 348.7724999999999T871.295019572954 355.99249999999995Q873.0550195729539 360.49249999999995 873.0550195729539 367.0424999999999V370.1524999999999H836.8550195729539V363.9324999999999H869.145019572954L865.8350195729539 366.2824999999999Q865.8350195729539 361.58249999999987 864.3650195729539 357.9324999999999Q862.8950195729539 354.2724999999999 859.975019572954 352.1724999999999T852.735019572954 350.0724999999999Q848.405019572954 350.0724999999999 845.3150195729539 352.1924999999999Q842.235019572954 354.3224999999999 840.5950195729539 357.72249999999985T838.9550195729539 365.0224999999998V369.1424999999998Q838.9550195729539 374.47249999999985 840.8050195729539 378.1724999999998Q842.655019572954 381.86249999999984 845.975019572954 383.7724999999998Q849.285019572954 385.6824999999998 853.655019572954 385.6824999999998Q856.465019572954 385.6824999999998 858.775019572954 384.8624999999997Q861.0850195729539 384.0524999999998 862.765019572954 382.3924999999997T865.3250195729539 378.2924999999997L872.295019572954 380.31249999999966Q871.2050195729539 383.84249999999963 868.625019572954 386.5024999999997Q866.045019572954 389.1724999999997 862.225019572954 390.6624999999997Q858.3950195729541 392.1524999999997 853.6550195729541 392.1524999999997M885.865019572954 362.93249999999966V391.1524999999997H878.725019572954V344.2125H885.615019572954V351.60249999999996H886.285019572954Q887.9250195729539 347.98249999999996 891.285019572954 345.8025T899.975019572954 343.62250000000006Q904.725019572954 343.62250000000006 908.2950195729541 345.5525T913.855019572954 351.4125Q915.855019572954 355.3325 915.855019572954 361.3425V391.1524999999999H908.715019572954V361.8425Q908.715019572954 356.3425 905.815019572954 353.2125T897.925019572954 350.0825Q894.475019572954 350.0825 891.7450195729541 351.60249999999996Q889.0150195729541 353.11249999999995 887.4450195729542 355.9625Q885.8650195729541 358.8225 885.8650195729541 362.9325M941.6150195729541 392.15250000000003Q935.7350195729541 392.15250000000003 931.2450195729541 389.1725T924.2350195729541 380.7125T921.7150195729541 367.7925Q921.7150195729541 360.40250000000003 924.2550195729541 354.97249999999997Q926.7950195729541 349.5324999999999 931.2850195729541 346.5725Q935.7850195729541 343.61249999999995 941.705019572954 343.61249999999995Q946.325019572954 343.61249999999995 948.985019572954 345.12249999999995Q951.655019572954 346.63249999999994 953.085019572954 348.5424999999999Q954.505019572954 350.4524999999999 955.305019572954 351.6724999999999H955.8950195729541V328.5724999999999H963.0350195729541V391.1424999999999H956.1450195729541V383.9224999999999H955.305019572954Q954.5050195729541 385.1824999999999 953.0350195729541 387.13249999999994Q951.575019572954 389.0825 948.8650195729541 390.62249999999995Q946.1550195729541 392.1524999999999 941.6150195729541 392.1524999999999M942.5450195729541 385.6824999999999Q946.9050195729541 385.6824999999999 949.8950195729541 383.3924999999999Q952.8750195729541 381.11249999999995 954.425019572954 377.0524999999999Q955.975019572954 373.00249999999994 955.975019572954 367.71249999999986T954.465019572954 358.4524999999999T949.955019572954 352.2824999999999Q946.955019572954 350.0724999999999 942.5450195729541 350.0724999999999Q938.0050195729541 350.0724999999999 934.9850195729541 352.4324999999999Q931.9550195729541 354.7824999999999 930.4450195729542 358.7724999999999T928.9350195729542 367.7125Q928.9350195729542 372.7125 930.4650195729541 376.7825Q932.0050195729541 380.8525000000001 935.0250195729541 383.27250000000004Q938.0450195729541 385.6825 942.5450195729541 385.6825M978.2950195729541 391.14250000000004H971.1550195729541V344.2025H978.2950195729541ZM974.7650195729541 336.38250000000005Q972.6650195729541 336.38250000000005 971.1550195729541 334.9625000000001Q969.6450195729541 333.53250000000014 969.6450195729541 331.51250000000005Q969.6450195729541 329.50250000000005 971.1550195729541 328.0725T974.7650195729541 326.64250000000004T978.3750195729541 328.0725T979.8850195729541 331.51250000000005Q979.8850195729541 333.5325 978.3750195729541 334.9625000000001Q976.8650195729541 336.38250000000005 974.7650195729541 336.38250000000005M1005.3950195729541 392.15250000000003Q998.8450195729541 392.15250000000003 994.0750195729539 389.02250000000004Q989.3150195729539 385.89250000000004 986.725019572954 380.4325Q984.145019572954 374.98249999999996 984.145019572954 367.9625Q984.145019572954 360.7825 986.795019572954 355.3025Q989.4350195729538 349.8225 994.2050195729538 346.7125Q998.9650195729538 343.61249999999995 1005.3050195729539 343.61249999999995Q1010.265019572954 343.61249999999995 1014.2350195729538 345.4325Q1018.2050195729538 347.26250000000005 1020.7450195729538 350.5825T1023.8750195729539 358.3025H1016.6450195729539Q1016.1050195729539 356.1625 1014.6750195729538 354.27250000000004T1010.9150195729538 351.2325000000001Q1008.5850195729537 350.0725000000001 1005.3950195729539 350.0725000000001Q1001.1950195729538 350.0725000000001 998.0450195729537 352.26250000000016Q994.8950195729539 354.4425000000001 993.1350195729539 358.41250000000014Q991.3650195729539 362.38250000000016 991.3650195729539 367.7125000000001Q991.3650195729539 373.13250000000005 993.0950195729539 377.1825000000001Q994.8150195729539 381.2325000000001 997.9850195729538 383.4625000000001Q1001.1550195729538 385.6825000000001 1005.3950195729539 385.6825000000001T1012.6550195729538 383.4825000000001Q1015.6850195729538 381.27250000000004 1016.6450195729539 377.4525000000001H1023.8750195729539Q1023.2850195729537 381.61250000000007 1020.8650195729539 384.9325000000001Q1018.4550195729538 388.24250000000006 1014.5250195729537 390.2025000000001Q1010.6050195729539 392.15250000000015 1005.3950195729539 392.15250000000015 "></path><path fill="#fff" d="M701.5710195729539 115.0515V129.3015A11.8 11.8 0 0 0 705.275019572954 128.5035A11.97 11.97 0 0 0 714.035019572954 128.5035A12.16 12.16 0 0 0 722.8220195729539 128.5035A11.7 11.7 0 0 0 731.4000195729539 128.56050000000002C731.5050195729539 127.94250000000002 733.7370195729538 116.3905 733.9840195729538 115.06050000000002ZM734.3740195729539 115.0515L720.6280195729539 192.07750000000001H721.900019572954L734.9910195729539 115.0515ZM741.3090195729538 115.0515L741.2900195729538 115.49750000000003L739.266019572954 115.46950000000001L739.0570195729539 116.98949999999999L741.1470195729538 117.01849999999999L740.9960195729539 118.4145L738.8860195729538 118.38550000000001L738.6770195729538 120.04850000000002L740.8430195729538 120.07650000000004L740.6920195729539 121.59650000000002H738.4690195729538L738.2310195729539 123.3735L740.4820195729538 123.40150000000003L740.3400195729538 125.06450000000004H738.0220195729538L737.7560195729537 127.02150000000003V127.07850000000005H740.1310195729537L740.0360195729537 127.91450000000006L739.9500195729537 128.92150000000007H737.5180195729537L737.2240195729538 131.08750000000006L739.7130195729537 131.11550000000008L739.5040195729538 133.2255000000001L736.9490195729537 133.1965000000001L736.6260195729537 135.62850000000012L739.2660195729537 135.65650000000014V135.69450000000015L739.0290195729536 138.00350000000017H736.3020195729538L735.9420195729537 140.73950000000016V140.76850000000016L738.7630195729538 140.79650000000018L738.6490195729538 141.86950000000016L738.4970195729537 143.40950000000018L735.5900195729538 143.38050000000018L735.2100195729538 146.49650000000017L738.2030195729538 146.52550000000016L737.9080195729538 149.49850000000018H734.7830195729538L734.3360195729538 153.06150000000017H737.5190195729538L737.1960195729538 156.41450000000017H733.8890195729538V156.44350000000017L733.3480195729538 160.45150000000015L733.3190195729538 160.54750000000016L736.7680195729538 160.56650000000016L736.6160195729539 162.25650000000016L736.3780195729538 164.46050000000017L732.8160195729538 164.43250000000015L732.1890195729537 169.11550000000014L735.9030195729538 169.14450000000014L735.4570195729538 173.78050000000016H731.6090195729538L730.8690195729538 179.30050000000014L734.9060195729537 179.32850000000016L734.3360195729537 184.81950000000015H730.1560195729537L729.3010195729537 191.41250000000016H733.6900195729537L733.6330195729537 192.15350000000015H735.1430195729537L735.2010195729537 191.41250000000016L735.7990195729536 184.81950000000015L736.3020195729537 179.32850000000016L736.7780195729537 173.80850000000018L737.1960195729537 169.1535000000002L737.6040195729537 164.4615000000002L737.8130195729537 162.25650000000022L737.9650195729537 160.4805000000002L738.3160195729537 156.4715000000002V156.41450000000017L738.6490195729538 153.08950000000019V152.99450000000016L738.9340195729537 149.49850000000018L739.2100195729537 146.5245000000002L739.5040195729538 143.4085000000002L739.6270195729537 141.88850000000022L739.7420195729537 140.79650000000024V140.76750000000024L739.9790195729537 138.03150000000025L740.1880195729537 135.68550000000025V135.65650000000025L740.3970195729538 133.22450000000023L740.6060195729538 131.11550000000025L740.7860195729537 128.94950000000026L740.8720195729537 127.90450000000024L740.9670195729537 127.04950000000022L741.1380195729538 125.09250000000023L741.2900195729538 123.40250000000023V123.37350000000023L741.4320195729538 121.58750000000023L741.5840195729537 120.06750000000025L741.7360195729538 118.41450000000023L741.8500195729538 117.01750000000024L742.0020195729537 115.49750000000026L742.0310195729537 115.06050000000025ZM742.6860195729539 115.0515L742.6580195729539 115.52650000000003L742.535019572954 117.01750000000001L742.420019572954 118.44250000000002L742.2970195729539 120.07650000000004L742.1830195729539 121.61650000000006L742.0310195729539 123.37350000000006V123.43050000000008L741.879019572954 125.09250000000006V125.12150000000005L741.737019572954 127.04950000000005L741.670019572954 127.90550000000005L741.5850195729539 128.94950000000003L741.404019572954 131.11550000000003L741.2610195729541 133.22550000000004L741.052019572954 135.65650000000002V135.69450000000003L740.872019572954 138.03150000000002L740.663019572954 140.7675V140.7965L740.568019572954 141.89849999999998L740.454019572954 143.40849999999998L740.188019572954 146.55349999999996L739.9500195729539 149.52649999999997L739.684019572954 152.9945V153.08950000000002L739.419019572954 156.44250000000002V156.47150000000002L739.0950195729539 160.48050000000003L738.972019572954 162.25650000000005L738.792019572954 164.46050000000005L738.4120195729539 169.14450000000008L738.051019572954 173.80850000000007L737.6040195729539 179.32850000000005L737.186019572954 184.81950000000003L736.654019572954 191.41250000000005L736.597019572954 192.15350000000004H738.117019572954L738.174019572954 191.41250000000005L748.472019572954 191.44050000000007H758.827019572954L758.8930195729539 192.1535000000001H760.4130195729539L760.347019572954 191.44050000000007L759.7580195729539 184.88550000000006L759.245019572954 179.39550000000006L758.770019572954 173.86550000000008L758.361019572954 169.2395000000001L757.915019572954 164.54650000000012L757.735019572954 162.35150000000013L757.554019572954 160.56550000000013L757.203019572954 156.5565000000001V156.5285000000001L756.908019572954 153.17550000000008V153.07950000000008L756.5760195729539 149.6125000000001L756.3100195729539 146.6485000000001L756.015019572954 143.5325000000001L755.8920195729539 141.98350000000013L755.7960195729539 140.9195000000001L755.7770195729539 140.85350000000014L755.5400195729538 138.12650000000016L755.3310195729539 135.80950000000016V135.78050000000016L755.122019572954 133.34850000000014L754.9130195729539 131.23950000000016L754.7330195729538 129.07350000000017L754.6190195729539 128.02850000000015L754.5610195729539 127.17350000000013L754.371019572954 125.20650000000015L754.2290195729539 123.51650000000015V123.48750000000015L754.0490195729539 121.71150000000014L753.9350195729539 120.19150000000016L753.7820195729539 118.52850000000015L753.640019572954 117.13150000000016L753.5170195729539 115.62150000000017L753.4590195729539 115.05150000000017H752.775019572954L752.804019572954 115.62150000000017L748.054019572954 115.56450000000015L743.333019572954 115.53550000000016L743.361019572954 115.06050000000013ZM754.1150195729539 115.0515L754.1720195729539 115.64950000000002L754.324019572954 117.13150000000005L754.4660195729539 118.52850000000004L754.6190195729539 120.19150000000005L754.7990195729539 121.73950000000005L754.9700195729539 123.48750000000004V123.54450000000006L755.122019572954 125.20650000000003V125.24450000000004L755.3310195729539 127.17350000000002L755.4260195729539 128.02850000000004L755.5110195729538 129.07350000000005L755.7490195729539 131.23950000000005L755.958019572954 133.34850000000003L756.1860195729539 135.78050000000005V135.80950000000004L756.4330195729539 138.15550000000005L756.699019572954 140.88150000000005L756.7280195729539 140.91050000000004L756.822019572954 142.01250000000002L756.9650195729539 143.5325L757.2880195729539 146.64849999999998L757.583019572954 149.61249999999998L757.9430195729539 153.08949999999996V153.18449999999999L758.266019572954 156.52849999999998V156.5855L758.6840195729538 160.5755L758.8650195729539 162.35150000000002L759.074019572954 164.5465L759.5490195729539 169.2395L760.024019572954 173.8665L760.5840195729539 179.3855L761.1160195729539 184.8855L761.7720195729539 191.4695L761.8290195729539 192.15350000000004H763.3780195729539L763.2820195729539 191.4695H767.5860195729539L766.6740195729539 184.8855H762.5700195729539L761.9520195729539 179.3955H765.8950195729539L765.0970195729539 173.89450000000002L761.3250195729539 173.86550000000003L760.822019572954 169.23950000000005L764.4420195729539 169.26850000000005L763.7860195729539 164.57450000000003L760.2990195729539 164.5465L760.0620195729539 162.3805L759.8820195729539 160.68950000000004H763.2350195729539V160.5945L762.6650195729538 156.5855L762.6460195729538 156.5565L759.4060195729538 156.52849999999998L759.0550195729539 153.2035H762.1710195729539L761.6670195729538 149.64149999999998H758.6660195729538L758.3040195729538 146.67749999999998H761.2490195729539L760.8030195729538 143.56049999999996L757.9810195729539 143.53249999999994L757.8010195729538 142.01249999999996L757.6870195729538 140.91049999999998L760.4420195729539 140.9485V140.9195L760.0620195729538 138.1835L757.3920195729538 138.1555L757.1170195729538 135.8375V135.8085H759.7010195729539L759.3780195729538 133.3765H756.8510195729539L756.6130195729539 131.2675H759.083019572954L758.7510195729539 129.10150000000002L756.3760195729539 129.0735L756.2620195729539 128.02849999999998L756.1670195729539 127.23049999999998L758.4850195729539 127.25949999999997V127.20149999999998L758.2190195729539 125.23549999999997L755.939019572954 125.20649999999998L755.7490195729539 123.5445L757.9820195729538 123.58250000000001L757.7150195729539 121.76750000000001L755.5490195729539 121.73949999999999L755.3690195729539 120.19050000000001L757.506019572954 120.21950000000001L757.2690195729539 118.5565H755.189019572954L755.0460195729539 117.1695H757.0600195729539L756.851019572954 115.64950000000002H754.8560195729539L754.8080195729539 115.06050000000002ZM760.8790195729539 115.0515L773.9420195729539 192.06750000000002H775.2520195729538L761.506019572954 115.0515ZM761.8860195729538 115.0515L764.4130195729539 128.59850000000003A11.4 11.4 0 0 0 772.8110195729539 128.5035A11.97 11.97 0 0 0 781.5990195729539 128.5035A12.07 12.07 0 0 0 790.3570195729538 128.5035C791.0610195729539 128.78850000000003 792.6850195729538 129.33950000000002 794.785019572954 129.33950000000002H794.8790195729539V115.0515ZM743.256019572954 117.04650000000001L748.102019572954 117.07450000000003L752.9370195729539 117.13150000000005L753.0510195729538 118.52850000000004L748.0920195729539 118.47150000000002L743.1330195729539 118.44250000000002ZM743.0470195729539 120.07649999999998L748.092019572954 120.13449999999997L753.2030195729538 120.1625L753.3170195729539 121.7105L748.0920195729539 121.67249999999999L742.9330195729539 121.61549999999997ZM742.8100195729538 123.43049999999997L748.1300195729539 123.45849999999999L753.4690195729539 123.51649999999998L753.5920195729539 125.17849999999996L748.1210195729539 125.14949999999996L742.6960195729538 125.09249999999994ZM742.5720195729539 127.10649999999995L748.1580195729539 127.17349999999996L753.7350195729539 127.20149999999998L753.8300195729539 128.02849999999998L753.8870195729539 129.04549999999998L748.158019572954 129.0065L742.4300195729539 128.94949999999997L742.516019572954 127.90449999999996ZM742.2780195729539 131.14449999999997L748.1580195729539 131.18249999999998L754.0680195729539 131.2395L754.2380195729539 133.34849999999997L748.187019572954 133.28149999999997L742.155019572954 133.25349999999995ZM741.9840195729539 135.69449999999998L748.1870195729539 135.72349999999997L754.419019572954 135.7805V135.80949999999999L754.6280195729539 138.1265L748.2150195729539 138.09849999999997L741.8310195729539 138.03149999999997L741.9840195729539 135.72349999999997ZM741.6130195729539 140.79649999999995L748.206019572954 140.85349999999997L754.828019572954 140.8815L754.9220195729539 141.98349999999996L755.0370195729539 143.53249999999994L748.234019572954 143.45649999999992L741.4320195729539 143.3994999999999L741.5560195729539 141.87949999999992ZM741.2330195729539 146.55349999999996L748.235019572954 146.58149999999998L755.265019572954 146.64849999999998L755.5110195729538 149.61249999999998L748.2630195729539 149.55549999999997L741.024019572954 149.52649999999997ZM740.7870195729539 153.08949999999996L748.2630195729539 153.11749999999998L755.8060195729539 153.17549999999997L756.072019572954 156.52849999999998L748.292019572954 156.47149999999996L740.549019572954 156.44249999999997ZM740.2830195729539 160.59449999999995L748.3200195729538 160.62249999999997L756.3950195729539 160.66049999999998L756.5180195729539 162.3525L756.6990195729538 164.5465L748.3200195729538 164.4895L740.0080195729538 164.4605L740.1590195729538 162.2565ZM712.9990195729539 161.51549999999995V161.57349999999994A16.15 16.15 0 0 1 706.6150195729539 162.79849999999996C704.4300195729539 162.79849999999996 702.6920195729539 162.40849999999998 701.5710195729539 162.05749999999998V192.06749999999997H719.545019572954L725.2160195729539 161.81949999999998C724.285019572954 162.17149999999995 722.2140195729538 162.79849999999996 719.4020195729539 162.79849999999996C715.5070195729539 162.79849999999996 712.9890195729539 161.51549999999995 712.9890195729539 161.51549999999995M782.7190195729539 161.51549999999995S780.1930195729539 162.79849999999996 776.3070195729539 162.79849999999996C773.5710195729539 162.79849999999996 771.5950195729539 162.18049999999997 770.6360195729538 161.81949999999998L776.3070195729539 192.06749999999997H794.8790195729539V161.84849999999997C793.9010195729539 162.19949999999997 791.8780195729539 162.79849999999996 789.1510195729539 162.79849999999996C785.266019572954 162.79849999999996 782.7390195729539 161.51549999999995 782.7390195729539 161.51549999999995M739.6840195729538 169.14449999999997L748.3580195729538 169.17249999999999L757.0790195729538 169.2395L757.4400195729539 173.86549999999997L748.3860195729538 173.83749999999995L739.362019572954 173.80849999999995ZM739.0010195729539 179.3285L748.4050195729538 179.3575L757.8860195729538 179.3855L758.333019572954 184.8855L748.4430195729539 184.8575L738.620019572954 184.81949999999998Z "></path></g><rect width="582" height="413" x="459" y="0" id="space-saver" fill="transparent" stroke="transparent"></rect></g></g></svg>