<svg xmlns="http://www.w3.org/2000/svg" version="1.1" xmlns:xlink="http://www.w3.org/1999/xlink" width="1500" height="83" viewBox="0 0 1500 83"><svg xml:space="preserve" width="1500" height="83" data-version="2" data-id="lg_5DdkTDxgzIXFMri6r6" viewBox="0 0 561 83" x="0" y="0"><rect width="100%" height="100%" fill="transparent"></rect><rect width="100" height="100" x="-50" y="-50" fill="#091627" rx="10" ry="10" transform="translate(46.228 41.5)scale(.8139)"></rect><path fill="#091627" d="M117.485 39.17q2.8 0 4.88-1.31 2.07-1.32 3.14-3.42 1.07-2.1 1.07-4.42 0-2.38-1.01-4.49-1.01-2.1-3.08-3.44-2.08-1.34-5.06-1.34h-5.19v33.91q0 2.44.61 3.69t1.34 1.65q.73.4.73.27h-9.69q0 .13.73-.3t1.31-1.65q.58-1.22.58-3.66v-30.5q0-2.5-.58-3.81t-1.31-1.77q-.73-.46-.73-.27h12.07q4.76 0 7.84 1.55 3.08 1.56 4.45 4.03 1.38 2.47 1.38 5.4 0 2.44-1.16 4.78-1.16 2.35-3.33 4.09-2.16 1.74-5.03 2.41l-.97.18 10.73 13.67q2.14 2.38 3.54 3.66 1.4 1.28 2.04 1.71.64.42.77.48h-7.14l-16.59-21.1zm48.55 21.1h-22.99q0 .19.73-.27t1.31-1.83q.58-1.37.58-4V24.22q0-2.5-.58-3.81t-1.31-1.8q-.73-.49-.73-.3h22.08v6.1q-1.1-3.66-6.59-3.66h-8.48v17.32h10.49q1.22 0 2.08-.4.85-.39 1.28-.82.42-.43.49-.55v5.92q-.07-.12-.49-.55-.43-.43-1.25-.79-.83-.37-2.05-.37h-10.55v17.32h9.52q2.74 0 4.72-1.12 1.99-1.13 2.84-2.9zm42.82-3.72q-2.31 1.89-6.03 3.17-3.73 1.29-7.51 1.29-5.67 0-10.55-2.63-4.88-2.62-7.84-7.56-2.96-4.94-2.96-11.59 0-6.22 2.72-11.16 2.71-4.95 7.74-7.72 5.04-2.78 11.75-2.78 7.13 0 12.68 3.11v6.78q-1.89-3.36-5.49-5.34-3.59-1.98-7.68-1.98-5.19 0-9 2.44-3.81 2.44-5.82 6.68-2.02 4.23-2.02 9.48 0 5.92 2.29 10.31 2.29 4.39 6.19 6.74 3.91 2.35 8.72 2.35 7.75 0 12.81-4.52zm8.06-16.77q0-6.47 2.77-11.53 2.78-5.06 7.81-7.87 5.03-2.81 11.62-2.81 5.49 0 10.28 2.41 4.79 2.41 7.68 7.23 2.9 4.82 2.9 11.59 0 6.47-2.77 11.53-2.78 5.06-7.81 7.87-5.03 2.81-11.62 2.81-5.49 0-10.28-2.41-4.79-2.41-7.69-7.23-2.89-4.82-2.89-11.59m38.18-.06q0-5.55-2.29-10.04-2.28-4.48-6.28-7.01-3.99-2.53-9-2.53-4.57 0-8.14 2.31-3.57 2.32-5.58 6.56-2.01 4.24-2.01 9.85 0 5.55 2.28 10.04 2.29 4.48 6.29 7.01 3.99 2.53 8.99 2.53 4.58 0 8.15-2.31 3.57-2.32 5.58-6.56 2.01-4.24 2.01-9.85m57.77 20.55h-9.46q.74-.12 1.59-1.31.85-1.19.85-4.42v-30.5l-15.98 36.9-16.22-36.84v30.13q0 3.3 1.06 4.61 1.07 1.31 1.93 1.43h-9.03q.91-.12 2.01-1.37 1.1-1.25 1.1-4.67V23.67q0-2.92-1.04-4.02-1.04-1.1-2.07-1.34h8.23l14.95 34.09 14.7-34.09h7.38q-.79.12-1.71 1.28-.91 1.16-.91 4.27v30.92q0 3.05.91 4.21.92 1.16 1.71 1.28m54.17 0h-9.46q.73-.12 1.59-1.31.85-1.19.85-4.42v-30.5l-15.98 36.9-16.23-36.84v30.13q0 3.3 1.07 4.61 1.07 1.31 1.92 1.43h-9.02q.91-.12 2.01-1.37 1.1-1.25 1.1-4.67V23.67q0-2.92-1.04-4.02-1.04-1.1-2.07-1.34h8.23l14.95 34.09 14.7-34.09h7.38q-.8.12-1.71 1.28-.92 1.16-.92 4.27v30.92q0 3.05.92 4.21.91 1.16 1.71 1.28m32.39 0h-23q0 .19.73-.27.74-.46 1.31-1.83.58-1.37.58-4V24.22q0-2.5-.58-3.81-.57-1.31-1.31-1.8-.73-.49-.73-.3h22.08v6.1q-1.09-3.66-6.58-3.66h-8.48v17.32h10.49q1.22 0 2.07-.4.86-.39 1.28-.82.43-.43.49-.55v5.92q-.06-.12-.49-.55-.42-.43-1.25-.79-.82-.37-2.04-.37h-10.55v17.32h9.51q2.75 0 4.73-1.12 1.98-1.13 2.84-2.9zm39.89-41.96h8.6q-.85.18-1.67 1.37-.83 1.19-.83 4.18v38.12l-31.23-36.42v29.22q0 2.93 1.04 4.12 1.03 1.19 2.01 1.37h-8.6q.85-.18 1.74-1.37.88-1.19.88-4.18v-30.5q0-2.07-1.4-3.78t-3.54-2.13h7.57l28.6 33.36V23.86q0-4.7-3.17-5.55m45.45 38.55q-5.74 3.41-15.31 3.41h-12.02q0 .19.73-.33t1.31-1.92q.58-1.41.58-4.09V23.92q0-2.38-.58-3.63t-1.31-1.68q-.73-.43-.73-.3h11.96q9.33 0 14.76 3.05 4.82 2.68 7.44 7.25 2.62 4.58 2.62 10.31 0 6.23-2.47 10.77-2.47 4.54-6.98 7.17m-2.38-32.76q-2.69-1.77-5.74-2.56-3.05-.79-7.25-.79h-4.95v37.08h4.95q5 0 8.2-.85 3.2-.85 5.52-2.62 2.99-2.32 4.61-6.07 1.61-3.75 1.61-8.76 0-5.3-1.86-9.3-1.86-3.99-5.09-6.13m20.37 36.17q0 .19.73-.27.74-.46 1.35-1.71.61-1.25.61-3.69V23.98q0-2.44-.58-3.69t-1.31-1.68q-.74-.43-.74-.3h9.7q0-.13-.73.3t-1.34 1.68q-.61 1.25-.61 3.69V54.6q0 2.44.61 3.69t1.34 1.68q.73.43.73.3zm52.71-3.72q-2.32 1.89-6.04 3.17-3.72 1.29-7.51 1.29-5.67 0-10.55-2.63-4.88-2.62-7.84-7.56-2.96-4.94-2.96-11.59 0-6.22 2.72-11.16 2.71-4.95 7.75-7.72 5.03-2.78 11.74-2.78 7.14 0 12.69 3.11v6.78q-1.89-3.36-5.49-5.34-3.6-1.98-7.69-1.98-5.18 0-9 2.44-3.81 2.44-5.82 6.68-2.02 4.23-2.02 9.48 0 5.92 2.29 10.31 2.29 4.39 6.19 6.74 3.91 2.35 8.73 2.35 7.74 0 12.81-4.52z"></path><path fill="#fffff5" d="M57.725 65.16q-2.37 0-3.8-1.1-1.42-1.11-2.18-2.93-.77-1.82-1.03-4.14-.27-2.32-.35-4.75-.07-2.42-.1-4.72-.03-2.29-.34-4.03-.32-1.74-1.03-2.77t-2.19-.87q-.37.69-1.08 2.06-.71 1.37-1.66 3.11-.95 1.74-1.98 3.69t-1.98 3.69q-.95 1.74-1.71 3.14-.77 1.4-1.14 2.08-.42.74-.58 1.14-.15.39-.34.63-.18.24-.47.29-.29.05-.87.05-1.06 0-1.48-.34-.42-.34-.42-1.4.89-3.37 2.4-6.72 1.5-3.35 3.35-6.65 1.84-3.29 3.9-6.54 2.06-3.24 4.06-6.4 1.26-1.9 2.95-4.41 1.69-2.5 3.77-4.74 2.09-2.24 4.54-3.77 2.45-1.53 5.25-1.53 1-.06 1.87.29.87.34 1.45 1.03.58.68.84 1.58.26.89.05 1.95 0 2.58-1.08 4.98-1.08 2.4-2.71 4.46-1.64 2.06-3.51 3.74-1.87 1.69-3.51 2.9-1.63 1.22-2.71 1.93t-1.08.76q0 .64.02 2.4.03 1.77.16 4.04.13 2.26.4 4.77.26 2.5.71 4.69.45 2.19 1.16 3.72.71 1.53 1.71 1.9.16.05.74.16.58.1 1.29.23.71.14 1.32.21.61.08.77.14.1.05.36.31.27.27.32.37-1.21.95-2 1.16-.79.21-2.06.21m-9.02-29.95q0 .79.27 1.19.26.39.74.55.47.16 1.08.18.6.03 1.29.03 2.11 0 4.22-1.5t3.82-3.69q1.71-2.19 2.77-4.67 1.05-2.48 1.05-4.38v-1.05q0-.53-.1-.98-.11-.45-.42-.71-.32-.26-1.01-.26-1.21 0-2.69.81-1.47.82-3 2.14-1.53 1.32-2.98 2.98t-2.56 3.37q-1.11 1.72-1.79 3.3-.69 1.58-.69 2.69" paint-order="stroke"></path></svg></svg>